<svg width="48" height="48" viewBox="0 0 48 48" fill="none" xmlns="http://www.w3.org/2000/svg">
<circle cx="24" cy="24" r="24" fill="black"/>
<path d="M24 0C10.7475 0 0 10.8025 0 24.1227C0 36.2159 8.86267 46.2037 20.411 47.9509V30.5178H14.4732V24.1767H20.411V19.9558C20.411 12.9718 23.7998 9.9043 29.5764 9.9043C32.3402 9.9043 33.8051 10.1104 34.4985 10.2037V15.7399H30.5579C28.1017 15.7399 27.2472 18.0761 27.2472 20.7067V24.1767H34.435L33.4584 30.5178H27.2472V48C38.9615 46.4049 48 36.3337 48 24.1227C48 10.8025 37.2525 0 24 0Z" fill="white"/>
</svg>
