<svg width="54" height="54" viewBox="0 0 54 54" fill="none" xmlns="http://www.w3.org/2000/svg">
<path d="M16.9947 1.5C8.4501 1.5 1.5 8.45703 1.5 17.0044V37.0053C1.5 45.5499 8.45703 52.5 17.0044 52.5H37.0053C45.5499 52.5 52.5 45.543 52.5 36.9955V16.9947C52.5 8.4501 45.543 1.5 36.9955 1.5H16.9947ZM40.9996 12.4983C41.2747 12.4983 41.5016 12.7253 41.5016 13.0004C41.5016 13.2708 41.2795 13.4976 40.9996 13.4976C40.7245 13.4976 40.5025 13.2756 40.5025 13.0004C40.5025 12.7204 40.7293 12.4983 40.9996 12.4983ZM27 16.4976C32.7881 16.4976 37.5025 21.2119 37.5025 27C37.5025 32.7881 32.7881 37.5025 27 37.5025C21.2119 37.5025 16.4976 32.7881 16.4976 27C16.4976 21.2119 21.2119 16.4976 27 16.4976ZM27 17.5016C21.7525 17.5016 17.5016 21.7525 17.5016 27C17.5016 32.2476 21.7525 36.4984 27 36.4984C32.2476 36.4984 36.4984 32.2476 36.4984 27C36.4984 21.7525 32.2476 17.5016 27 17.5016Z" fill="black" stroke="white" stroke-width="3"/>
</svg>
