<svg width="48" height="48" viewBox="0 0 48 48" fill="none" xmlns="http://www.w3.org/2000/svg">
<path d="M24 0C10.7461 0 0 10.7461 0 24C0 37.2539 10.7461 48 24 48C37.2539 48 48 37.2539 48 24C48 10.7461 37.2539 0 24 0ZM40.3543 32.0131C39.938 33.8155 38.4637 35.1429 36.6906 35.3437C32.4882 35.8139 28.2367 35.8188 24 35.8139C19.7633 35.8188 15.5118 35.8139 11.3094 35.3437C9.53633 35.1478 8.06204 33.8155 7.64571 32.0131C7.05306 29.4416 7.05306 26.64 7.05306 24C7.05306 21.36 7.05796 18.5535 7.65061 15.9869C8.06694 14.1845 9.53633 12.8571 11.3143 12.6563C15.5167 12.1861 19.7731 12.1861 24.0049 12.1861C28.2367 12.1812 32.4931 12.1861 36.6955 12.6563C38.4686 12.8571 39.9429 14.1845 40.3592 15.9869C40.9518 18.5535 40.9469 21.3551 40.9469 24C40.9469 26.6449 40.942 29.4465 40.3543 32.0131Z" fill="white"/>
<rect x="6.12244" y="11.2245" width="36.7347" height="25.5102" rx="6" fill="black"/>
<path d="M19.3877 30.5992C22.9877 28.7331 26.5583 26.8816 30.1632 25.0106C26.5485 23.1249 22.9828 21.2637 19.3877 19.3878C19.3877 23.1396 19.3877 26.8522 19.3877 30.5992Z" fill="white"/>
</svg>
