<svg width="385" height="335" viewBox="0 0 385 335" fill="none" xmlns="http://www.w3.org/2000/svg">
<path fill-rule="evenodd" clip-rule="evenodd" d="M203.291 198.469L255.946 162.078V77.0406H252.295L203.289 108.144C198.8 110.989 188.551 111.023 184.062 108.144L135.056 77.0406H131.405V162.078L184.06 198.469C188.314 201.381 199 201.415 203.287 198.469H203.291Z" fill="#1A181C"/>
<path fill-rule="evenodd" clip-rule="evenodd" d="M181.414 193.85V109.141L134.155 79.7938V161.079L181.414 193.85V193.85ZM202.515 111.252C198.512 113.717 188.266 113.557 184.136 110.932V195.641C188.17 198.426 198.416 198.81 202.515 195.993V111.251V111.252ZM205.236 194.169L253.201 161.079V79.7938L205.236 109.555V194.169V194.169Z" fill="#FEFEFE"/>
<path d="M186.345 106.875L144.106 77.0469V83.7079" stroke="#1A181C" stroke-width="1.1641"/>
<path d="M188.756 106.24L155.495 77.0469V85.3821" stroke="#1A171C" stroke-width="1.1641"/>
<path d="M190.833 105.839L164.973 77.0469V85.4831" stroke="#1A171C" stroke-width="1.1641"/>
<path d="M193.344 105.839L172.008 77.0469V85.0814" stroke="#1B181C" stroke-width="1.1641"/>
<path d="M200.345 106.875L242.59 77.0469V83.7079" stroke="#1B181C" stroke-width="1.1641"/>
<path d="M197.933 106.24L231.184 77.0469V85.3821" stroke="#1A181C" stroke-width="1.1641"/>
<path d="M195.856 105.839L221.715 77.0469V85.4831" stroke="#1B181C" stroke-width="1.1641"/>
<path d="M193.344 105.839L214.686 77.0469V85.0814" stroke="#1A171C" stroke-width="1.1641"/>
<path d="M182.923 109C189.957 104.547 196.958 104.715 204.059 109" stroke="#1A171C" stroke-width="1.1641"/>
<path fill-rule="evenodd" clip-rule="evenodd" d="M78.726 306.425C74.7929 299.217 71.5762 292.839 76.7628 277.675C77.5471 279.515 77.842 283.439 80.4498 283.419C80.7562 278.007 82.2965 274.484 83.9698 271.256C84.0532 276.248 83.6815 286.049 86.6699 288.554C87.6865 277.043 89.2117 265.672 93.935 254.779C131.346 224.829 170.788 202.208 210.876 181.55C210.452 187.169 210.971 192.476 212.203 197.466C212.592 188.932 214.582 181.977 218.499 176.897C240.069 172.975 260.55 169.718 280.611 166.837C278.819 173.372 278.131 179.359 277.538 185.251C281.359 176.592 286.105 169.838 292.419 166.38C315.933 165.599 338.652 168.832 361.099 173.81C335.43 194.948 311.449 216.648 279.631 236.53C270.921 238.94 263.532 235.066 256.369 230.242C259.95 238.07 264.249 244.202 270.427 246.458C233.967 272.196 174.633 290.076 123.48 310.726C115.403 309.165 106.267 308.505 101.607 303.029C99.2196 310.249 109.515 312.402 118.14 315.257C110.659 313.393 103.069 312.083 96.1578 308.112C98.1273 317.114 108.912 320.856 117.078 326.222C106.807 321.817 93.8687 316.96 90.71 313.196C91.142 315.654 93.1511 318.463 96.288 321.572C90.0772 317.357 83.4828 312.952 78.7259 306.423L78.726 306.425Z" fill="#FEFEFE" stroke="#1A171C" stroke-width="1.7165"/>
<path fill-rule="evenodd" clip-rule="evenodd" d="M34.6987 328.93C135.84 264.898 239.177 204.286 342.271 176.426C252.003 209.925 158.506 268.808 65.6748 316.037L34.7071 328.93H34.6987Z" fill="#1A181C"/>
<path fill-rule="evenodd" clip-rule="evenodd" d="M193.967 214.028C146.84 214.028 108.427 175.635 108.427 128.533C108.427 81.4301 146.84 43.035 193.967 43.035C241.094 43.035 279.507 81.4301 279.507 128.533C279.507 175.635 241.094 214.028 193.967 214.028ZM193.967 255.406C181.788 255.406 84.8854 252.952 20.6227 292.598C27.7951 269.216 54.1261 262.191 42.5732 263.104C26.062 264.403 21.0078 269.455 5.07359 267.145C42.67 246.12 76.5585 238.615 118.101 230.195C87.0992 207.005 67.0258 170.006 67.0258 128.532C67.0258 58.6233 124.02 1.65843 193.965 1.65843C263.909 1.65843 320.903 58.6233 320.903 128.532C320.903 167.84 302.852 203.059 274.595 226.393C312.671 232.166 365.383 242.703 382.279 254.732C370.485 264.499 354.262 255.694 345.838 262.286C354.695 267.145 354.214 271.908 357.776 290.192C328.846 270.658 273.392 250.162 193.963 255.406L193.967 255.406Z" stroke="#FEFEFE" stroke-width="1.3614"/>
<path fill-rule="evenodd" clip-rule="evenodd" d="M193.967 214.028C146.84 214.028 108.427 175.635 108.427 128.533C108.427 81.4301 146.84 43.035 193.967 43.035C241.094 43.035 279.507 81.4301 279.507 128.533C279.507 175.635 241.094 214.028 193.967 214.028ZM193.967 255.406C181.788 255.406 84.8854 252.952 20.6227 292.598C27.7951 269.216 54.1261 262.191 42.5732 263.104C26.062 264.403 21.0078 269.455 5.07359 267.145C42.67 246.12 76.5585 238.615 118.101 230.195C87.0992 207.005 67.0258 170.006 67.0258 128.532C67.0258 58.6233 124.02 1.65843 193.965 1.65843C263.909 1.65843 320.903 58.6233 320.903 128.532C320.903 167.84 302.852 203.059 274.595 226.393C312.671 232.166 365.383 242.703 382.279 254.732C370.485 264.499 354.262 255.694 345.838 262.286C354.695 267.145 354.214 271.908 357.776 290.192C328.846 270.658 273.392 250.162 193.963 255.406L193.967 255.406Z" fill="#1A171C"/>
<path fill-rule="evenodd" clip-rule="evenodd" d="M124.218 225.365C146.11 238.204 178.043 248.467 216.174 248.512C284.972 249.099 326.36 264.154 350.966 280.746C351.419 273.061 346.669 267.59 336.447 262.301C345.674 252.039 360.104 255.61 374.441 254.254C354.539 246.749 289.993 234.95 255.164 226.993C242.906 224.19 223.864 222.653 191.84 218.72C147.286 217.183 103.005 183.186 103.005 129.885C103.005 75.2732 145.342 37.9297 195.007 37.9297C244.672 37.9297 284.657 74.821 284.657 129.885C284.657 172.877 257.744 202.942 224.226 214.064C242.816 217.228 258.422 222.291 269.594 224.19C296.144 202.264 314.284 166.821 314.284 129.884C314.284 64.1947 260.728 8.76936 195.007 8.76936C129.284 8.76936 72.4725 64.1947 72.4725 129.884C72.4725 168.853 94.5913 203.62 124.219 225.364L124.218 225.365ZM121.73 233.412C91.0632 241.595 62.2946 244.579 27.9641 260.448C40.2672 260.448 33.2564 259.589 64.2411 257.373C58.0896 266.099 50.2644 262.708 37.6 279.344C82.9235 253.35 142.403 253.078 174.109 249.823C156.65 246.748 142.447 242.273 121.73 233.412V233.412Z" stroke="#FEFEFE" stroke-width="1.4403"/>
<path fill-rule="evenodd" clip-rule="evenodd" d="M124.218 225.365C146.11 238.204 178.043 248.467 216.174 248.512C284.972 249.099 326.36 264.154 350.966 280.746C351.419 273.061 346.669 267.59 336.447 262.301C345.674 252.039 360.104 255.61 374.441 254.254C354.539 246.749 289.993 234.95 255.164 226.993C242.906 224.19 223.864 222.653 191.84 218.72C147.286 217.183 103.005 183.186 103.005 129.885C103.005 75.2732 145.342 37.9297 195.007 37.9297C244.672 37.9297 284.657 74.821 284.657 129.885C284.657 172.877 257.744 202.942 224.226 214.064C242.816 217.228 258.422 222.291 269.594 224.19C296.144 202.264 314.284 166.821 314.284 129.884C314.284 64.1947 260.728 8.76936 195.007 8.76936C129.284 8.76936 72.4725 64.1947 72.4725 129.884C72.4725 168.853 94.5913 203.62 124.219 225.364L124.218 225.365ZM121.73 233.412C91.0632 241.595 62.2946 244.579 27.9641 260.448C40.2672 260.448 33.2564 259.589 64.2411 257.373C58.0896 266.099 50.2644 262.708 37.6 279.344C82.9235 253.35 142.403 253.078 174.109 249.823C156.65 246.748 142.447 242.273 121.73 233.412V233.412Z" fill="#FEFEFE"/>
<path d="M86.1667 159.333L91.475 164.642L96.725 159.45L91.3583 154.083L86.1667 159.333Z" fill="black"/>
<path d="M292.167 159.333L297.475 164.642L302.725 159.45L297.358 154.083L292.167 159.333Z" fill="black"/>
<path d="M80.1593 135.86L85.1838 135.936L87.5363 132.471L87.7329 132.699C89.3055 134.523 91.7142 137.284 94.5638 137.327C97.6635 137.374 99.7574 134.48 99.8068 131.206C99.8565 127.906 97.8296 124.7 94.9159 123.931L94.7307 124.603C97.0945 125.364 97.9212 128.577 97.8831 131.101C97.8503 133.276 97.382 136.145 95.1501 136.586C93.3219 136.783 93.0252 134.904 93.0463 133.504C93.0746 131.629 94.0725 130.119 95.2382 129.086L91.017 122.172L84.7427 122.077C83.877 123.114 83.1332 124.353 82.6371 125.746C80.9167 123.77 78.8255 121.513 75.6009 121.464L75.251 121.459L75.2472 121.709L75.2222 121.709L75.2207 121.809L75.2154 122.159C76.7383 122.307 77.6429 123.67 77.6199 125.195C77.598 126.645 76.8524 128.009 75.9631 128.946L80.1593 135.86ZM91.2851 127.602C90.6175 128.767 90.1468 130.135 90.1231 131.71C90.1031 133.034 90.4849 134.24 91.1459 135.175C89.9846 134.258 89.0021 133.093 88.2646 132.257L84.9227 128.381L85.3608 127.512L91.2851 127.602ZM91.6956 126.908L85.7213 126.818L86.4431 125.378L92.1925 125.465L92.4103 125.943C92.1808 126.24 91.9259 126.561 91.6956 126.908ZM79.3296 131.197L84.379 131.273L83.3834 132.633L79.0838 132.568L78.766 132.088C78.9702 131.816 79.1497 131.519 79.3296 131.197ZM79.7151 130.502C80.2308 129.46 80.6239 128.266 80.6446 126.891C80.6609 125.816 80.3763 124.787 79.8642 123.929C80.9259 124.82 81.835 125.884 82.6213 126.796L85.3242 129.937L84.8645 130.58L79.7151 130.502Z" fill="black"/>
<path d="M82.1211 92.1977L83.9425 99.6886C83.1178 98.741 82.5914 97.6004 82.3804 96.3773L81.9707 96.5082C82.0284 100.334 84.4297 104.467 88.8569 105.889C93.4032 107.349 98.644 105.094 100.104 100.547C101.289 96.858 99.6361 93.176 96.1193 91.8625L95.974 92.3148C97.3726 93.683 98.3046 95.768 97.8716 98.0971C93.611 96.7286 89.3504 95.3601 85.0898 93.9915C85.9116 93.2314 86.7011 92.4085 87.4269 91.5387L85.3852 87.7582L85.086 87.8722L85.4602 88.8327C84.4948 90.2031 83.3841 91.2905 82.1211 92.1977ZM92.3049 103.084C91.1277 103.152 89.8449 102.976 88.5596 102.563C87.1077 102.097 85.8988 101.446 84.9254 100.635L84.5451 99.1207C87.0919 99.9388 89.615 100.749 92.1618 101.567L92.3049 103.084ZM92.9603 103.005L92.553 98.3056L83.651 95.4462L83.6169 95.2252C83.8991 95.0008 84.1813 94.7763 84.4634 94.5518C88.8668 95.9662 93.2941 97.3883 97.6975 98.8027C97.6898 98.8265 97.6745 98.8741 97.6593 98.9217C96.8794 101.35 95.1227 102.65 92.9603 103.005Z" fill="black"/>
<path d="M95.2435 71.8049C94.8531 70.9367 95.1742 70.1509 95.5842 69.5836C96.0089 68.996 96.625 68.485 97.0789 67.8568C98.3675 66.0737 97.6296 63.9365 97.389 62.7756L96.9284 63.0287C96.8572 63.8101 96.5632 64.4304 96.1678 64.9775C95.6553 65.6867 94.9806 66.2787 94.4974 66.9474C92.6962 69.4397 94.6445 71.8656 94.7627 72.0435L95.2435 71.8049ZM106.102 76.9685L106.608 77.3346C107.098 76.4858 107.426 75.5199 107.484 74.5437C107.621 72.3909 106.249 71.4301 105.519 70.9029L101.001 67.6374C99.3538 66.4163 98.9768 65.7429 98.7362 64.582C102.566 67.3496 106.375 70.1026 110.205 72.8702C109.577 73.3114 109.008 73.8866 108.554 74.5147C106.093 77.9188 107.754 81.34 108.054 81.8647L108.493 81.2569C108.245 79.9361 108.555 78.5253 109.345 77.4312C110.136 76.337 111.188 75.8633 111.73 75.6687L111.269 72.2513C111.12 72.329 110.986 72.3863 110.873 72.4584C109.191 71.2429 107.509 70.0275 105.827 68.8121L107.833 66.0362L112.332 69.287L112.381 70.9264L112.846 70.9232L112.827 70.1384L116.051 69.4762L115.694 65.1469L115.205 65.2255L115.278 66.2344L114.225 66.368L103.243 58.4312L103.171 57.2073L102.462 57.2499L102.524 58.1889L100.154 58.821L100.381 62.5626L100.942 62.9377L100.913 61.868L101.815 61.687L105.463 64.3229L103.456 67.0988C101.835 65.9273 100.194 64.7412 98.553 63.5551L98.1283 64.1427L98.3498 65.0739C98.4746 65.6268 98.5645 66.1853 98.5644 66.7404C98.6156 68.5047 98.2145 69.572 100.058 70.9046L100.585 71.2853C99.9768 72.5113 99.4392 74.066 101.101 75.2668C101.506 75.5597 101.999 75.731 102.51 75.7919L102.788 75.4069C102.012 75.0306 101.853 74.2683 102.468 73.4173C102.585 73.2552 102.702 73.0931 102.834 72.9107L102.875 72.94C105.894 75.1219 106.239 75.7109 106.102 76.9685Z" fill="black"/>
<path d="M121.279 42.4659L122.143 41.0625C123.719 43.224 125.31 45.4056 126.901 47.5873L125.934 49.1894C124.898 48.4904 123.936 47.5523 123.155 46.4816C122.212 45.1888 121.606 43.8055 121.279 42.4659ZM121.083 41.4332C120.883 39.9704 121.037 38.5273 121.47 37.253L120.907 37.0754C118.755 40.5317 118.564 45.4046 121.598 49.5659C124.927 54.1313 130.244 55.4832 133.638 53.0088C137.173 50.4313 138.19 42.9143 134.817 38.2883C132.313 34.8542 128.355 33.9657 125.075 34.6865L121.083 41.4332ZM126.504 49.5471L129.138 45.1823L123.974 38.0569L124 38.0073C124.406 37.9277 124.812 37.8482 125.212 37.8036C128.055 41.7024 130.912 45.6213 133.755 49.52C133.674 49.5789 133.614 49.6231 133.533 49.682C131.452 51.1991 128.811 50.9284 126.504 49.5471ZM134.262 49.0268C133.334 47.7542 132.391 46.4613 131.463 45.1887L133.6 41.0321C133.846 41.2855 134.052 41.5683 134.273 41.8713C136.159 44.457 135.82 47.3027 134.262 49.0268ZM126.028 37.7346C127.975 37.6459 129.694 38.0942 131.197 39.0095L129.446 42.4212C128.311 40.8657 127.163 39.2901 126.028 37.7346ZM129.917 43.0676L131.817 39.3929C132.253 39.6938 132.678 40.0646 133.082 40.4501L130.992 44.5423C130.624 44.0372 130.27 43.5524 129.917 43.0676Z" fill="black"/>
<path d="M151.191 24.8746L152.44 23.7998C153.285 26.3378 154.138 28.8996 154.991 31.4613L153.584 32.6941C152.809 31.7136 152.177 30.5275 151.759 29.2704C151.253 27.7523 151.095 26.2502 151.191 24.8746ZM151.318 23.8311C151.571 22.3765 152.156 21.0486 152.955 19.9657L152.473 19.6256C149.373 22.2651 147.712 26.8499 149.339 31.7362C151.124 37.0968 155.779 39.9997 159.764 38.6728C163.915 37.2906 167.166 30.4375 165.358 25.0057C164.015 20.9733 160.513 18.9246 157.169 18.6152L151.318 23.8311ZM154.018 33.2081L157.854 29.8494L155.097 21.4922L155.137 21.4527C155.548 21.5003 155.959 21.5478 156.354 21.627C157.879 26.2049 159.411 30.8065 160.935 35.3844C160.84 35.416 160.769 35.4397 160.674 35.4713C158.231 36.2848 155.796 35.2246 154.018 33.2081ZM161.568 35.0684C161.07 33.5741 160.565 32.056 160.067 30.5617L163.365 27.2502C163.523 27.5665 163.633 27.8986 163.752 28.2544C164.763 31.2905 163.576 33.899 161.568 35.0684ZM157.153 21.8091C159.034 22.3157 160.536 23.2649 161.69 24.5934L158.985 27.3121C158.377 25.4857 157.761 23.6355 157.153 21.8091ZM159.238 28.0711L162.164 25.1469C162.488 25.566 162.78 26.0484 163.049 26.5386L159.814 29.8026C159.617 29.2096 159.427 28.6404 159.238 28.0711Z" fill="black"/>
<path d="M183.651 23.6643C183.901 23.6595 184.15 23.6547 184.4 23.6499L184.431 25.2246C184.477 27.5991 183.984 29.3089 182.972 29.9536L183.797 29.9377C185.646 29.902 187.696 27.262 187.643 24.5125L187.547 19.5384C187.52 18.1387 187.767 16.7086 188.577 15.9179C188.7 15.8155 188.799 15.7386 188.922 15.6362C189.984 14.9406 190.692 14.0518 190.814 13.8994L190.826 13.224C190.335 13.7086 189.617 14.0725 188.717 14.0898C187.517 14.113 186.58 13.5059 185.38 13.5291C182.681 13.5811 181.296 16.9585 181.201 17.2104L181.776 17.1993C182.014 16.5946 182.606 16.1831 183.431 16.1672C184.406 16.1484 185.313 16.5059 186.313 16.4866C186.663 16.4799 187.012 16.4232 187.335 16.3419C185.487 17.7528 184.266 17.9764 184.341 20.5504L184.347 20.9004C183.548 20.9158 183.2 21.0225 182.877 21.1788C182.01 21.5706 181.427 22.457 181.45 23.6818C181.46 24.1817 181.595 24.7041 181.804 25.1502L182.279 25.141C182.087 24.2946 182.651 23.6836 183.651 23.6643ZM189.294 28.4564C191.313 26.8421 191.972 25.9793 191.934 24.0046L191.822 18.2307C191.806 16.1056 192.324 14.4453 194.238 13.8333L194.66 13.7001L194.65 13.1502L194.376 13.2055C190.441 14.0066 188.571 15.6179 188.665 20.467L188.737 24.1913C188.779 26.3909 188.557 27.8455 187.775 28.7607C185.338 29.4829 183.543 31.0678 182.506 33.0131L182.515 33.488C184.313 32.1031 186.449 31.3118 188.823 31.266C190.723 31.2293 192.608 31.7181 194.25 32.6116L197.872 29.8162L197.461 29.249L196.648 29.8648C194.906 29.0233 192.792 28.3389 190.368 28.3857C189.993 28.3929 189.643 28.4246 189.294 28.4564Z" fill="black"/>
<path d="M230.281 30.8999C230.542 30.332 231.138 30.4131 231.729 30.6844C231.819 30.7262 231.888 30.7575 231.978 30.7993L230.267 34.5248C230.244 34.5144 230.244 34.5144 230.244 34.5144C228.358 33.648 226.25 34.1649 225.405 36.005C224.476 38.0268 225.759 39.9645 227.474 40.4225L227.776 40.0658C226.949 39.7687 226.473 38.8894 226.828 38.1171C227.13 37.4583 227.841 37.2895 228.477 37.5817C229.317 37.9679 229.691 38.7722 229.914 39.4249L234.337 37.5229L234.165 37.0587L232.996 37.5671C232.49 36.1519 231.557 35.3101 230.882 34.8625L235.036 25.8213C235.04 25.933 235.066 26.0552 235.082 26.2001L236.774 42.5772L237.637 42.9738L243.775 29.6164C245.372 30.2126 247.182 29.8062 247.902 28.2387C248.079 27.8526 248.166 27.4246 248.151 26.9776L247.833 26.8315C247.452 27.4817 246.667 27.7537 245.917 27.4092C245.099 27.0335 244.738 26.2623 244.594 25.6182L244.15 25.3868L239.83 27.3637L239.991 27.8505L241.304 27.2704C241.609 28.0434 242.216 28.8176 243.139 29.3241C241.99 31.823 240.842 34.3218 239.694 36.8206L238.415 25.173C238.305 23.8566 238.234 22.3935 236.576 21.6316C235.009 20.9113 233.11 21.6898 232.359 23.3254C232.265 23.5299 232.183 23.7675 232.135 23.9928L232.524 24.282C232.879 23.5096 233.441 23.245 234.077 23.5373C234.418 23.6938 234.644 24.1003 234.807 24.643L233.398 27.7098C233.375 27.6994 233.375 27.6994 233.353 27.6889C231.853 27 230.105 27.5722 229.447 29.0033C228.957 30.071 229.308 31.2228 230.067 31.8467L230.326 31.5808C230.219 31.3942 230.177 31.1271 230.281 30.8999Z" fill="black"/>
<path d="M270.558 42.6137L270.714 43.1272C267.974 43.2717 267.003 42.9307 266.177 42.0954C265.509 41.4201 265.389 40.624 264.738 39.9664C264.158 39.38 263.434 39.3584 262.849 39.6205L262.692 39.107C264.731 38.0395 266.496 38.5085 267.305 39.326C268.184 40.2146 268.196 41.293 269.128 42.2349C269.568 42.6791 270.081 42.6288 270.558 42.6137ZM259.227 45.8769C259.42 46.0724 259.614 46.2679 259.807 46.4634L258.456 47.7997C257.692 48.5558 256.822 49.276 255.995 48.5821L255.728 49.0227C257.241 50.3389 259.516 51.3232 261.275 49.5825L265.256 45.6438C266.269 44.6415 267.313 44.4526 268.355 44.6173C266.187 46.7625 264.037 48.89 261.869 51.0352C260.234 52.6529 258.923 53.1409 256.426 50.6174C255.248 49.4267 253.516 49.3468 252.254 50.5952C251.188 51.6502 250.984 53.4346 252.092 54.5542C252.162 54.6253 252.233 54.6964 252.321 54.7499L252.747 54.3279C252.73 54.3101 252.694 54.3099 252.677 54.2921C252.219 53.8301 252.064 53.1398 252.526 52.6826C253.201 52.0145 254.064 52.7438 254.732 53.3131C256.439 54.7894 258.469 55.419 260.228 53.6782L260.246 53.6606L261.935 51.9548L262.61 51.2867C263.581 51.4509 264.337 52.2858 264.367 53.2759C263.461 54.1727 262.537 55.087 261.63 55.9838L259.776 55.638L259.668 56.0617L260.692 56.244L261.008 59.9757L266.184 60.7633L266.169 60.2506L265.25 60.0689C266.263 59.0667 267.294 58.0468 268.307 57.0446C269.261 57.1911 269.981 57.9904 270.047 58.9454L267.204 61.7587L265.508 61.4315L265.4 61.8552L266.424 62.0374L266.74 65.7692L271.652 66.2902L271.637 65.7775L269.977 65.4505L269.879 64.0004L278.16 55.8065L279.821 55.9921L279.895 55.3207L278.57 55.1546L278.345 50.9107L275.291 50.1343C275.611 49.8178 275.949 49.4837 276.269 49.1672L275.759 48.6518C275.332 49.0738 274.906 49.4958 274.461 49.9354L272.943 49.5384C272.792 48.035 272.676 46.5318 272.525 45.0284L266.752 43.7072C264.456 43.1646 263.164 43.4229 261.886 44.4768C260.267 43.16 258.693 43.1693 257.627 44.2244C257.254 44.5936 257.004 45.0519 256.86 45.5461L257.194 45.8838C257.728 45.1088 258.576 45.2194 259.227 45.8769ZM264.707 49.2118C264.896 50.1851 265.705 50.9319 266.677 50.9901C266.073 51.5879 265.487 52.1682 264.883 52.766C264.835 51.7228 264.061 50.9408 263.125 50.7767L264.707 49.2118ZM265.222 48.7019L268.794 45.1676L269.379 48.3174C268.65 49.0383 267.921 49.7592 267.193 50.4802C266.221 50.422 265.376 49.675 265.222 48.7019ZM264.492 59.7997L264.254 57.96L272.304 49.9947L273.982 50.4102C270.818 53.54 267.655 56.6699 264.492 59.7997ZM270.404 54.9697C270.558 55.9075 271.35 56.6365 272.286 56.7299L270.562 58.4355C270.479 57.4274 269.723 56.6986 268.822 56.5347C269.355 56.0072 269.871 55.4972 270.404 54.9697ZM270.919 54.4598C272.146 53.2466 273.372 52.0333 274.616 50.8025L274.934 54.1099L272.819 56.2024C271.847 56.1442 271.073 55.3976 270.919 54.4598Z" fill="black"/>
<path d="M301.704 88.8159L301.899 88.1326L299.927 87.159C300.203 85.6516 300.012 84.0731 299.408 82.6728C298.002 79.4131 294.468 77.3434 290.979 78.8484C288.867 79.7594 287.788 81.6133 287.704 83.5011L282.69 82.8595C281.308 81.7401 279.577 81.2615 277.959 81.3605L278.147 81.7967C279.662 82.3413 280.938 83.5333 281.592 85.0483C282.156 86.3568 282.206 87.8601 281.792 89.2365L285.118 90.8242C284.523 92.0336 284.093 93.3083 283.86 94.6613L287.633 96.6549L288.103 95.6624L287.147 95.1493C287.439 93.934 288.443 93.4196 289.981 92.7562L298.773 88.9639C299.645 88.5876 300.37 88.4382 301.066 88.6007L301.704 88.8159ZM297.268 85.4746C297.255 85.6979 297.21 85.9081 297.174 86.1412L291.297 88.676L289.475 84.4522L297.268 85.4746ZM297.286 84.7589L288.17 83.5722C288.502 82.2583 289.366 81.0417 290.858 80.3981C293.268 79.3585 295.802 80.4982 296.841 82.9086C297.099 83.5054 297.232 84.1288 297.286 84.7589ZM286.819 84.1006L286.517 84.0947L288.933 89.6959L287.005 90.5276L285.263 89.6453C285.486 88.2694 285.309 86.8484 284.764 85.5858C284.447 84.8513 284.045 84.2351 283.562 83.6814L286.819 84.1006Z" fill="black"/>
<path d="M309.357 121.078L304.742 114.877C305.874 115.45 306.804 116.268 307.477 117.31L307.805 117.054C306.324 113.526 302.522 110.689 297.916 111.115C293.087 111.561 289.112 115.82 289.559 120.65C289.916 124.508 292.86 127.299 296.635 127.126L296.592 126.653C294.762 125.868 293.052 124.218 292.555 121.829C294.497 121.649 296.463 121.467 298.43 121.286L298.686 124.049L302.128 126.793L301.592 120.993C303.035 120.86 304.479 120.726 305.923 120.593C305.463 121.589 305.059 122.656 304.735 123.765L308.096 126.442L308.327 126.22L307.606 125.483C307.956 123.844 308.552 122.408 309.357 121.078ZM295.72 115.059C296.774 114.509 298.025 114.193 299.345 114.071C300.863 113.93 302.255 114.053 303.467 114.392L304.41 115.636C301.747 115.882 299.108 116.126 296.444 116.373L295.72 115.059ZM295.148 115.388L297.364 119.526L306.674 118.665L306.792 118.855C306.62 119.172 306.451 119.514 306.28 119.831C301.674 120.257 297.044 120.686 292.439 121.112C292.436 121.087 292.434 121.062 292.429 121.012C292.192 118.448 293.298 116.563 295.148 115.388Z" fill="black"/>
</svg>
